<?xml version="1.0" encoding="UTF-8"?>
<!DOCTYPE svg PUBLIC "-//W3C//DTD SVG 1.1//EN" "http://www.w3.org/Graphics/SVG/1.1/DTD/svg11.dtd">
<!-- Creator: CorelDRAW -->
<svg xmlns="http://www.w3.org/2000/svg" xml:space="preserve" width="512px" height="512px" style="shape-rendering:geometricPrecision; text-rendering:geometricPrecision; image-rendering:optimizeQuality; fill-rule:evenodd; clip-rule:evenodd"
viewBox="0 0 512 512"
 xmlns:xlink="http://www.w3.org/1999/xlink">
 <defs>
  <style type="text/css">
   <![CDATA[
    .fil0 {fill:url(#id0)}
   ]]>
  </style>
  <linearGradient id="id0" gradientUnits="userSpaceOnUse" x1="0.022441" y1="256" x2="511.976" y2="256">
   <stop offset="0" style="stop-color:#990000"/>
   <stop offset="1" style="stop-color:red"/>
  </linearGradient>
 </defs>
 <g id="Layer_x0020_1">
  <metadata id="CorelCorpID_0Corel-Layer"/>
  <path class="fil0" d="M306.517 391.809l-99.1255 0c-9.21499,0 -9.21381,-13.9996 0,-13.9996l99.1255 0.00118111c9.21617,0 9.21617,13.9985 0,13.9985zm86.1499 105.964l-353.879 0c-21.3745,0 -38.7651,-19.0654 -38.7651,-42.5009l0 -398.46c0,-23.4343 17.3906,-42.5009 38.7651,-42.5009l286.064 0c2.10473,0 4.09844,0.947247 5.42718,2.57954l66.7018 81.8731c1.74567,1.7126 2.66812,2.84883 2.68702,5.78742l0 386.223c-0.00118111,3.86576 -3.13466,6.99923 -7.00042,6.99923zm-353.878 -469.462c-14.3989,0 -24.7654,13.8083 -24.7654,28.5013l0 398.459c0,15.717 11.1095,28.5024 24.7654,28.5024l346.88 0 0 -372.498 -61.1541 0c-3.86576,0 -6.99923,-3.13347 -6.99923,-6.99923l0 -75.9664 -278.727 0.00118111zm338.925 68.966l-46.2001 -56.7084 0 56.7084 46.2001 0zm91.7211 400.498c-2.20867,0 -4.29096,-1.04528 -5.61143,-2.81576l-34.271 -45.9805c-0.900003,-1.20827 -1.3878,-2.67521 -1.3878,-4.18348l0.00118111 -398.58c0,-17.6398 14.3504,-31.9903 31.9891,-31.9903l19.832 0.00118111c17.6398,0 31.9891,14.3504 31.9891,31.9891l-0.00118111 398.578 -1.50237 4.33348 -35.5005 45.9273c-1.3252,1.71615 -3.37088,2.72009 -5.53702,2.72009zm-27.2717 -419.569l0 359.589 55.812 0 0 -359.589 -55.812 0zm6.94608 373.587l20.4272 27.4064 21.1831 -27.4064 -41.6104 0zm-6.9449 -387.586l55.812 0 0 -17.9918c0,-9.92011 -8.0705,-17.9906 -17.9894,-17.9906l-19.8331 0c-9.92011,0 -17.9894,8.0705 -17.9894,17.9906l0 17.9918zm-288.411 142.447l-97.7684 0c-3.86576,0 -6.99923,-3.13347 -6.99923,-6.99923l0 -72.8483c0,-3.86576 3.13347,-6.99923 6.99923,-6.99923l97.7684 0c3.86576,0 6.99923,3.13347 6.99923,6.99923l0 72.8483c0,3.86576 -3.13466,6.99923 -6.99923,6.99923zm-90.7692 -13.9985l83.7699 0 0 -58.8498 -83.7699 0 0 58.8498zm90.7692 123.271l-97.7684 0c-3.86576,0 -6.99923,-3.13347 -6.99923,-6.99923l0 -72.8483c0,-3.86576 3.13347,-7.00042 6.99923,-7.00042l97.7684 0c3.86576,0 6.99923,3.13466 6.99923,7.00042l0 72.8483c0,3.86576 -3.13466,6.99923 -6.99923,6.99923zm-90.7692 -13.9985l83.7699 0 0 -58.8498 -83.7699 0 0 58.8498zm90.7692 123.27l-97.7684 0c-3.86576,0 -6.99923,-3.13347 -6.99923,-6.99923l0 -72.8483c0,-3.86576 3.13347,-6.99923 6.99923,-6.99923l97.7684 0c3.86576,0 6.99923,3.13347 6.99923,6.99923l0 72.8483c0,3.86576 -3.13466,6.99923 -6.99923,6.99923zm-90.7692 -13.9985l83.7699 0 0 -58.8498 -83.7699 0 0 58.8498zm279.065 -253.11l-170.19 0c-9.21381,0 -9.21617,-13.9996 0,-13.9996l170.19 0c9.21735,0 9.21499,13.9996 0,13.9996zm-35.5324 25.2934l-99.1255 0c-9.21617,0 -9.21381,-13.9996 0,-13.9996l99.1255 0c9.21499,0 9.21735,13.9996 0,13.9996zm35.5324 78.9191l-170.19 0c-9.21499,0 -9.21499,-13.9985 0,-13.9985l170.19 0c9.21617,0 9.21617,13.9985 0,13.9985zm-35.5324 25.2934l-99.1255 0c-9.21499,0 -9.21499,-13.9985 0,-13.9985l99.1255 0c9.21617,0 9.21617,13.9985 0,13.9985zm35.5324 78.9191l-170.19 0c-9.21499,0 -9.21499,-13.9985 0,-13.9985l170.19 0.00118111c9.21617,0 9.21735,13.9973 0,13.9973z"/>
 </g>
</svg>
